<svg width="109" height="29" viewBox="0 0 109 29" fill="none" xmlns="http://www.w3.org/2000/svg">
<path d="M6.87891 16.3125L11.0742 5.4375H14.8594L9.01172 19.1953C8.80859 19.6641 8.57422 20.1133 8.30859 20.543C8.05078 20.9648 7.74219 21.3438 7.38281 21.6797C7.02344 22.0078 6.59375 22.2695 6.09375 22.4648C5.59375 22.6523 4.99609 22.7461 4.30078 22.7461C4.12891 22.7461 3.91797 22.7422 3.66797 22.7344C3.41797 22.7266 3.21875 22.7148 3.07031 22.6992L3.04688 19.957C3.14062 19.9805 3.28906 19.9961 3.49219 20.0039C3.69531 20.0039 3.84375 20.0039 3.9375 20.0039C4.39844 20.0039 4.76172 19.9375 5.02734 19.8047C5.29297 19.6719 5.50391 19.4844 5.66016 19.2422C5.82422 18.9922 5.96875 18.6992 6.09375 18.3633L6.87891 16.3125ZM4.10156 5.4375L7.99219 13.8867L9.08203 17.7656L6.46875 17.8125L0.328125 5.4375H4.10156ZM20.918 20.0977C21.332 20.0977 21.6992 20.0195 22.0195 19.8633C22.3398 19.6992 22.5898 19.4727 22.7695 19.1836C22.957 18.8867 23.0547 18.5391 23.0625 18.1406H26.2383C26.2305 19.0312 25.9922 19.8242 25.5234 20.5195C25.0547 21.207 24.4258 21.75 23.6367 22.1484C22.8477 22.5391 21.9648 22.7344 20.9883 22.7344C20.0039 22.7344 19.1445 22.5703 18.4102 22.2422C17.6836 21.9141 17.0781 21.4609 16.5938 20.8828C16.1094 20.2969 15.7461 19.6172 15.5039 18.8438C15.2617 18.0625 15.1406 17.2266 15.1406 16.3359V15.9961C15.1406 15.0977 15.2617 14.2617 15.5039 13.4883C15.7461 12.707 16.1094 12.0273 16.5938 11.4492C17.0781 10.8633 17.6836 10.4062 18.4102 10.0781C19.1367 9.75 19.9883 9.58594 20.9648 9.58594C22.0039 9.58594 22.9141 9.78516 23.6953 10.1836C24.4844 10.582 25.1016 11.1523 25.5469 11.8945C26 12.6289 26.2305 13.5 26.2383 14.5078H23.0625C23.0547 14.0859 22.9648 13.7031 22.793 13.3594C22.6289 13.0156 22.3867 12.7422 22.0664 12.5391C21.7539 12.3281 21.3672 12.2227 20.9062 12.2227C20.4141 12.2227 20.0117 12.3281 19.6992 12.5391C19.3867 12.7422 19.1445 13.0234 18.9727 13.3828C18.8008 13.7344 18.6797 14.1367 18.6094 14.5898C18.5469 15.0352 18.5156 15.5039 18.5156 15.9961V16.3359C18.5156 16.8281 18.5469 17.3008 18.6094 17.7539C18.6719 18.207 18.7891 18.6094 18.9609 18.9609C19.1406 19.3125 19.3867 19.5898 19.6992 19.793C20.0117 19.9961 20.418 20.0977 20.918 20.0977ZM36.7266 9.82031V12.4688H30.4922V9.82031H36.7266ZM39.1992 9.82031V22.5H35.8242V9.82031H39.1992ZM29.6484 9.82031H32.9648L32.625 16.2188C32.5781 17.1328 32.4805 17.9375 32.332 18.6328C32.1836 19.3281 31.9844 19.9219 31.7344 20.4141C31.4922 20.9062 31.1992 21.3086 30.8555 21.6211C30.5195 21.9258 30.125 22.1484 29.6719 22.2891C29.2266 22.4297 28.7344 22.5 28.1953 22.5H27.1641L27.1289 19.8398L27.5625 19.793C27.8125 19.7695 28.0312 19.6992 28.2188 19.582C28.4141 19.457 28.5781 19.2812 28.7109 19.0547C28.8516 18.8203 28.9688 18.5273 29.0625 18.1758C29.1562 17.8164 29.2305 17.3945 29.2852 16.9102C29.3477 16.4258 29.3906 15.8672 29.4141 15.2344L29.6484 9.82031ZM45.5742 21.0703L48.9375 9.82031H52.5586L47.4609 24.4102C47.3516 24.7305 47.2031 25.0742 47.0156 25.4414C46.8359 25.8086 46.5898 26.1562 46.2773 26.4844C45.9727 26.8203 45.5859 27.0938 45.1172 27.3047C44.6562 27.5156 44.0898 27.6211 43.418 27.6211C43.0977 27.6211 42.8359 27.6016 42.6328 27.5625C42.4297 27.5234 42.1875 27.4688 41.9062 27.3984V24.9258C41.9922 24.9258 42.082 24.9258 42.1758 24.9258C42.2695 24.9336 42.3594 24.9375 42.4453 24.9375C42.8906 24.9375 43.2539 24.8867 43.5352 24.7852C43.8164 24.6836 44.043 24.5273 44.2148 24.3164C44.3867 24.1133 44.5234 23.8477 44.625 23.5195L45.5742 21.0703ZM44.168 9.82031L46.9219 19.0078L47.4023 22.582L45.1055 22.8281L40.5469 9.82031H44.168ZM62.5312 9.82031V12.4688H57.2578V22.5H53.8828V9.82031H62.5312ZM67.3477 17.7891L71.6016 9.82031H74.9766V22.5H71.6016V14.5195L67.3477 22.5H63.9727V9.82031H67.3477V17.7891Z" fill="white"/>
<path d="M77.7422 20.8711C77.7422 20.3711 77.9141 19.9531 78.2578 19.6172C78.6094 19.2812 79.0742 19.1133 79.6523 19.1133C80.2305 19.1133 80.6914 19.2812 81.0352 19.6172C81.3867 19.9531 81.5625 20.3711 81.5625 20.8711C81.5625 21.3711 81.3867 21.7891 81.0352 22.125C80.6914 22.4609 80.2305 22.6289 79.6523 22.6289C79.0742 22.6289 78.6094 22.4609 78.2578 22.125C77.9141 21.7891 77.7422 21.3711 77.7422 20.8711ZM87.9141 12.2578V27.375H84.5391V9.82031H87.668L87.9141 12.2578ZM95.9414 16.0195V16.2656C95.9414 17.1875 95.832 18.043 95.6133 18.832C95.4023 19.6211 95.0898 20.3086 94.6758 20.8945C94.2617 21.4727 93.7461 21.9258 93.1289 22.2539C92.5195 22.5742 91.8164 22.7344 91.0195 22.7344C90.2461 22.7344 89.5742 22.5781 89.0039 22.2656C88.4336 21.9531 87.9531 21.5156 87.5625 20.9531C87.1797 20.3828 86.8711 19.7227 86.6367 18.9727C86.4023 18.2227 86.2227 17.418 86.0977 16.5586V15.9141C86.2227 14.9922 86.4023 14.1484 86.6367 13.3828C86.8711 12.6094 87.1797 11.9414 87.5625 11.3789C87.9531 10.8086 88.4297 10.3672 88.9922 10.0547C89.5625 9.74219 90.2305 9.58594 90.9961 9.58594C91.8008 9.58594 92.5078 9.73828 93.1172 10.043C93.7344 10.3477 94.25 10.7852 94.6641 11.3555C95.0859 11.9258 95.4023 12.6055 95.6133 13.3945C95.832 14.1836 95.9414 15.0586 95.9414 16.0195ZM92.5547 16.2656V16.0195C92.5547 15.4805 92.5078 14.9844 92.4141 14.5312C92.3281 14.0703 92.1875 13.668 91.9922 13.3242C91.8047 12.9805 91.5547 12.7148 91.2422 12.5273C90.9375 12.332 90.5664 12.2344 90.1289 12.2344C89.668 12.2344 89.2734 12.3086 88.9453 12.457C88.625 12.6055 88.3633 12.8203 88.1602 13.1016C87.957 13.3828 87.8047 13.7188 87.7031 14.1094C87.6016 14.5 87.5391 14.9414 87.5156 15.4336V17.0625C87.5547 17.6406 87.6641 18.1602 87.8438 18.6211C88.0234 19.0742 88.3008 19.4336 88.6758 19.6992C89.0508 19.9648 89.543 20.0977 90.1523 20.0977C90.5977 20.0977 90.9727 20 91.2773 19.8047C91.582 19.6016 91.8281 19.3242 92.0156 18.9727C92.2109 18.6211 92.3477 18.2148 92.4258 17.7539C92.5117 17.293 92.5547 16.7969 92.5547 16.2656ZM101.66 21.0703L105.023 9.82031H108.645L103.547 24.4102C103.438 24.7305 103.289 25.0742 103.102 25.4414C102.922 25.8086 102.676 26.1562 102.363 26.4844C102.059 26.8203 101.672 27.0938 101.203 27.3047C100.742 27.5156 100.176 27.6211 99.5039 27.6211C99.1836 27.6211 98.9219 27.6016 98.7188 27.5625C98.5156 27.5234 98.2734 27.4688 97.9922 27.3984V24.9258C98.0781 24.9258 98.168 24.9258 98.2617 24.9258C98.3555 24.9336 98.4453 24.9375 98.5312 24.9375C98.9766 24.9375 99.3398 24.8867 99.6211 24.7852C99.9023 24.6836 100.129 24.5273 100.301 24.3164C100.473 24.1133 100.609 23.8477 100.711 23.5195L101.66 21.0703ZM100.254 9.82031L103.008 19.0078L103.488 22.582L101.191 22.8281L96.6328 9.82031H100.254Z" fill="#E93947"/>
</svg>
